<mxfile host="app.diagrams.net" modified="2023-05-31T08:20:29.452Z" agent="Mozilla/5.0 (Windows NT 10.0; Win64; x64) AppleWebKit/537.36 (KHTML, like Gecko) Chrome/113.0.0.0 Safari/537.36" etag="_j_ph_Kn6FYdIlbe-7iu" version="21.1.9" type="device">
  <diagram id="C5RBs43oDa-KdzZeNtuy" name="Page-1">
    <mxGraphModel dx="1194" dy="738" grid="0" gridSize="10" guides="1" tooltips="1" connect="1" arrows="1" fold="1" page="1" pageScale="1" pageWidth="827" pageHeight="1169" math="0" shadow="0">
      <root>
        <mxCell id="WIyWlLk6GJQsqaUBKTNV-0" />
        <mxCell id="WIyWlLk6GJQsqaUBKTNV-1" parent="WIyWlLk6GJQsqaUBKTNV-0" />
        <mxCell id="hzo_TGVIDgafTTq2jEPT-0" value="" style="endArrow=block;endSize=10;endFill=0;shadow=0;strokeWidth=1;rounded=0;edgeStyle=elbowEdgeStyle;elbow=vertical;exitX=0.5;exitY=0;exitDx=0;exitDy=0;dashed=1;dashPattern=8 8;labelBackgroundColor=none;fontColor=default;entryX=0.5;entryY=1;entryDx=0;entryDy=0;" parent="WIyWlLk6GJQsqaUBKTNV-1" source="hzo_TGVIDgafTTq2jEPT-30" target="hzo_TGVIDgafTTq2jEPT-28" edge="1">
          <mxGeometry width="160" relative="1" as="geometry">
            <mxPoint x="108" y="401" as="sourcePoint" />
            <mxPoint x="217" y="323" as="targetPoint" />
          </mxGeometry>
        </mxCell>
        <mxCell id="hzo_TGVIDgafTTq2jEPT-1" value="" style="endArrow=block;endSize=10;endFill=0;shadow=0;strokeWidth=1;rounded=0;edgeStyle=elbowEdgeStyle;elbow=vertical;entryX=0.5;entryY=1;entryDx=0;entryDy=0;exitX=0.5;exitY=0;exitDx=0;exitDy=0;dashed=1;dashPattern=8 8;labelBackgroundColor=none;fontColor=default;" parent="WIyWlLk6GJQsqaUBKTNV-1" source="hzo_TGVIDgafTTq2jEPT-34" target="hzo_TGVIDgafTTq2jEPT-28" edge="1">
          <mxGeometry width="160" relative="1" as="geometry">
            <mxPoint x="342" y="404" as="sourcePoint" />
            <mxPoint x="217" y="323" as="targetPoint" />
          </mxGeometry>
        </mxCell>
        <mxCell id="hzo_TGVIDgafTTq2jEPT-25" value="&lt;i&gt;«interface»&lt;br&gt;&lt;b&gt;Phone&lt;/b&gt;&lt;/i&gt;" style="html=1;" parent="WIyWlLk6GJQsqaUBKTNV-1" vertex="1">
          <mxGeometry x="531" y="281" width="110" height="50" as="geometry" />
        </mxCell>
        <mxCell id="hzo_TGVIDgafTTq2jEPT-28" value="&lt;p style=&quot;margin:0px;margin-top:4px;text-align:center;&quot;&gt;&lt;i&gt;&amp;lt;&amp;lt;Interface&amp;gt;&amp;gt;&lt;br&gt;&lt;b&gt;Factory&lt;/b&gt;&lt;/i&gt;&lt;/p&gt;&lt;hr size=&quot;1&quot;&gt;&lt;p style=&quot;margin:0px;margin-left:4px;&quot;&gt;&lt;/p&gt;&lt;p style=&quot;margin:0px;margin-left:4px;&quot;&gt;&lt;i&gt;+ createPhone(): Phone&lt;/i&gt;&lt;/p&gt;&lt;p style=&quot;margin:0px;margin-left:4px;&quot;&gt;&lt;i&gt;+ createPad(): Pad&lt;/i&gt;&lt;/p&gt;" style="verticalAlign=top;align=left;overflow=fill;fontSize=12;fontFamily=Helvetica;html=1;" parent="WIyWlLk6GJQsqaUBKTNV-1" vertex="1">
          <mxGeometry x="120" y="254" width="145" height="77" as="geometry" />
        </mxCell>
        <mxCell id="hzo_TGVIDgafTTq2jEPT-57" style="edgeStyle=orthogonalEdgeStyle;rounded=0;orthogonalLoop=1;jettySize=auto;html=1;entryX=1;entryY=0.5;entryDx=0;entryDy=0;dashed=1;dashPattern=8 8;endSize=10;endArrow=open;endFill=0;" parent="WIyWlLk6GJQsqaUBKTNV-1" source="hzo_TGVIDgafTTq2jEPT-30" target="hzo_TGVIDgafTTq2jEPT-38" edge="1">
          <mxGeometry relative="1" as="geometry">
            <Array as="points">
              <mxPoint x="101" y="573" />
              <mxPoint x="792" y="573" />
              <mxPoint x="792" y="393" />
            </Array>
          </mxGeometry>
        </mxCell>
        <mxCell id="hzo_TGVIDgafTTq2jEPT-30" value="HWFactory" style="swimlane;fontStyle=1;align=center;verticalAlign=top;childLayout=stackLayout;horizontal=1;startSize=26;horizontalStack=0;resizeParent=1;resizeParentMax=0;resizeLast=0;collapsible=1;marginBottom=0;" parent="WIyWlLk6GJQsqaUBKTNV-1" vertex="1">
          <mxGeometry x="34" y="424" width="137" height="70" as="geometry" />
        </mxCell>
        <mxCell id="hzo_TGVIDgafTTq2jEPT-33" value="+ createPhone(): Phone&#xa;+ createPad(): Pad" style="text;strokeColor=none;fillColor=none;align=left;verticalAlign=top;spacingLeft=4;spacingRight=4;overflow=hidden;rotatable=0;points=[[0,0.5],[1,0.5]];portConstraint=eastwest;" parent="hzo_TGVIDgafTTq2jEPT-30" vertex="1">
          <mxGeometry y="26" width="137" height="44" as="geometry" />
        </mxCell>
        <mxCell id="hzo_TGVIDgafTTq2jEPT-56" style="edgeStyle=orthogonalEdgeStyle;rounded=0;orthogonalLoop=1;jettySize=auto;html=1;entryX=0;entryY=0.5;entryDx=0;entryDy=0;dashed=1;dashPattern=8 8;endSize=10;endArrow=open;endFill=0;" parent="WIyWlLk6GJQsqaUBKTNV-1" source="hzo_TGVIDgafTTq2jEPT-34" target="hzo_TGVIDgafTTq2jEPT-40" edge="1">
          <mxGeometry relative="1" as="geometry">
            <Array as="points">
              <mxPoint x="401" y="459" />
              <mxPoint x="401" y="533" />
            </Array>
          </mxGeometry>
        </mxCell>
        <mxCell id="hzo_TGVIDgafTTq2jEPT-34" value="AppleFactory" style="swimlane;fontStyle=1;align=center;verticalAlign=top;childLayout=stackLayout;horizontal=1;startSize=26;horizontalStack=0;resizeParent=1;resizeParentMax=0;resizeLast=0;collapsible=1;marginBottom=0;" parent="WIyWlLk6GJQsqaUBKTNV-1" vertex="1">
          <mxGeometry x="215" y="424" width="140" height="70" as="geometry" />
        </mxCell>
        <mxCell id="hzo_TGVIDgafTTq2jEPT-35" value="+ createPhone(): Phone&#xa;+ createPad(): Pad" style="text;strokeColor=none;fillColor=none;align=left;verticalAlign=top;spacingLeft=4;spacingRight=4;overflow=hidden;rotatable=0;points=[[0,0.5],[1,0.5]];portConstraint=eastwest;" parent="hzo_TGVIDgafTTq2jEPT-34" vertex="1">
          <mxGeometry y="26" width="140" height="44" as="geometry" />
        </mxCell>
        <mxCell id="hzo_TGVIDgafTTq2jEPT-36" value="ApplePhone" style="swimlane;fontStyle=1;align=center;verticalAlign=top;childLayout=stackLayout;horizontal=1;startSize=26;horizontalStack=0;resizeParent=1;resizeParentMax=0;resizeLast=0;collapsible=1;marginBottom=0;" parent="WIyWlLk6GJQsqaUBKTNV-1" vertex="1">
          <mxGeometry x="441" y="378" width="130" height="30" as="geometry" />
        </mxCell>
        <mxCell id="hzo_TGVIDgafTTq2jEPT-38" value="HWPhone" style="swimlane;fontStyle=1;align=center;verticalAlign=top;childLayout=stackLayout;horizontal=1;startSize=26;horizontalStack=0;resizeParent=1;resizeParentMax=0;resizeLast=0;collapsible=1;marginBottom=0;" parent="WIyWlLk6GJQsqaUBKTNV-1" vertex="1">
          <mxGeometry x="614" y="378" width="120" height="30" as="geometry" />
        </mxCell>
        <mxCell id="hzo_TGVIDgafTTq2jEPT-39" value="&lt;i&gt;«interface»&lt;br&gt;&lt;b&gt;Pad&lt;/b&gt;&lt;/i&gt;" style="html=1;" parent="WIyWlLk6GJQsqaUBKTNV-1" vertex="1">
          <mxGeometry x="531" y="444" width="110" height="30" as="geometry" />
        </mxCell>
        <mxCell id="hzo_TGVIDgafTTq2jEPT-40" value="ApplePad" style="swimlane;fontStyle=1;align=center;verticalAlign=top;childLayout=stackLayout;horizontal=1;startSize=26;horizontalStack=0;resizeParent=1;resizeParentMax=0;resizeLast=0;collapsible=1;marginBottom=0;" parent="WIyWlLk6GJQsqaUBKTNV-1" vertex="1">
          <mxGeometry x="446" y="518" width="130" height="30" as="geometry" />
        </mxCell>
        <mxCell id="hzo_TGVIDgafTTq2jEPT-41" value="HWPad" style="swimlane;fontStyle=1;align=center;verticalAlign=top;childLayout=stackLayout;horizontal=1;startSize=26;horizontalStack=0;resizeParent=1;resizeParentMax=0;resizeLast=0;collapsible=1;marginBottom=0;" parent="WIyWlLk6GJQsqaUBKTNV-1" vertex="1">
          <mxGeometry x="614" y="518" width="120" height="30" as="geometry" />
        </mxCell>
        <mxCell id="hzo_TGVIDgafTTq2jEPT-46" value="" style="endArrow=block;dashed=1;endFill=0;endSize=10;html=1;rounded=0;exitX=0.5;exitY=0;exitDx=0;exitDy=0;entryX=0.5;entryY=1;entryDx=0;entryDy=0;dashPattern=8 8;edgeStyle=elbowEdgeStyle;elbow=vertical;" parent="WIyWlLk6GJQsqaUBKTNV-1" source="hzo_TGVIDgafTTq2jEPT-40" target="hzo_TGVIDgafTTq2jEPT-39" edge="1">
          <mxGeometry width="160" relative="1" as="geometry">
            <mxPoint x="459" y="518" as="sourcePoint" />
            <mxPoint x="619" y="518" as="targetPoint" />
          </mxGeometry>
        </mxCell>
        <mxCell id="hzo_TGVIDgafTTq2jEPT-47" value="" style="endArrow=block;dashed=1;endFill=0;endSize=10;html=1;rounded=0;exitX=0.5;exitY=0;exitDx=0;exitDy=0;entryX=0.5;entryY=1;entryDx=0;entryDy=0;dashPattern=8 8;edgeStyle=elbowEdgeStyle;elbow=vertical;" parent="WIyWlLk6GJQsqaUBKTNV-1" source="hzo_TGVIDgafTTq2jEPT-41" target="hzo_TGVIDgafTTq2jEPT-39" edge="1">
          <mxGeometry width="160" relative="1" as="geometry">
            <mxPoint x="669" y="538" as="sourcePoint" />
            <mxPoint x="747.5" y="498" as="targetPoint" />
          </mxGeometry>
        </mxCell>
        <mxCell id="hzo_TGVIDgafTTq2jEPT-49" value="" style="endArrow=block;dashed=1;endFill=0;endSize=10;html=1;rounded=0;exitX=0.5;exitY=0;exitDx=0;exitDy=0;entryX=0.5;entryY=1;entryDx=0;entryDy=0;dashPattern=8 8;edgeStyle=elbowEdgeStyle;elbow=vertical;" parent="WIyWlLk6GJQsqaUBKTNV-1" source="hzo_TGVIDgafTTq2jEPT-36" target="hzo_TGVIDgafTTq2jEPT-25" edge="1">
          <mxGeometry width="160" relative="1" as="geometry">
            <mxPoint x="507" y="370" as="sourcePoint" />
            <mxPoint x="585.5" y="306" as="targetPoint" />
          </mxGeometry>
        </mxCell>
        <mxCell id="hzo_TGVIDgafTTq2jEPT-50" value="" style="endArrow=block;dashed=1;endFill=0;endSize=10;html=1;rounded=0;exitX=0.5;exitY=0;exitDx=0;exitDy=0;entryX=0.5;entryY=1;entryDx=0;entryDy=0;dashPattern=8 8;edgeStyle=elbowEdgeStyle;elbow=vertical;" parent="WIyWlLk6GJQsqaUBKTNV-1" source="hzo_TGVIDgafTTq2jEPT-38" target="hzo_TGVIDgafTTq2jEPT-25" edge="1">
          <mxGeometry width="160" relative="1" as="geometry">
            <mxPoint x="669" y="370" as="sourcePoint" />
            <mxPoint x="585.5" y="306" as="targetPoint" />
          </mxGeometry>
        </mxCell>
        <mxCell id="hzo_TGVIDgafTTq2jEPT-53" value="" style="endArrow=open;endFill=1;endSize=10;html=1;rounded=0;dashed=1;dashPattern=8 8;hachureGap=4;fontFamily=Architects Daughter;fontSource=https%3A%2F%2Ffonts.googleapis.com%2Fcss%3Ffamily%3DArchitects%2BDaughter;fontSize=16;entryX=1;entryY=0.5;entryDx=0;entryDy=0;labelBackgroundColor=none;fontColor=default;edgeStyle=orthogonalEdgeStyle;elbow=vertical;exitX=0.506;exitY=1.068;exitDx=0;exitDy=0;exitPerimeter=0;" parent="WIyWlLk6GJQsqaUBKTNV-1" source="hzo_TGVIDgafTTq2jEPT-33" target="hzo_TGVIDgafTTq2jEPT-41" edge="1">
          <mxGeometry width="160" relative="1" as="geometry">
            <mxPoint x="283" y="508" as="sourcePoint" />
            <mxPoint x="164" y="440.0000000000002" as="targetPoint" />
            <Array as="points">
              <mxPoint x="101" y="573" />
              <mxPoint x="792" y="573" />
              <mxPoint x="792" y="533" />
            </Array>
          </mxGeometry>
        </mxCell>
        <mxCell id="hzo_TGVIDgafTTq2jEPT-55" style="edgeStyle=orthogonalEdgeStyle;rounded=0;orthogonalLoop=1;jettySize=auto;html=1;exitX=1.008;exitY=0.178;exitDx=0;exitDy=0;dashed=1;dashPattern=8 8;endSize=10;exitPerimeter=0;endArrow=open;endFill=0;" parent="WIyWlLk6GJQsqaUBKTNV-1" source="hzo_TGVIDgafTTq2jEPT-35" target="hzo_TGVIDgafTTq2jEPT-36" edge="1">
          <mxGeometry relative="1" as="geometry">
            <Array as="points">
              <mxPoint x="401" y="458" />
              <mxPoint x="401" y="393" />
            </Array>
          </mxGeometry>
        </mxCell>
        <mxCell id="hzo_TGVIDgafTTq2jEPT-60" style="edgeStyle=orthogonalEdgeStyle;rounded=0;orthogonalLoop=1;jettySize=auto;html=1;endArrow=open;endFill=0;endSize=10;entryX=1;entryY=0.25;entryDx=0;entryDy=0;" parent="WIyWlLk6GJQsqaUBKTNV-1" source="hzo_TGVIDgafTTq2jEPT-59" target="hzo_TGVIDgafTTq2jEPT-28" edge="1">
          <mxGeometry relative="1" as="geometry">
            <mxPoint x="263" y="258" as="targetPoint" />
          </mxGeometry>
        </mxCell>
        <mxCell id="hzo_TGVIDgafTTq2jEPT-59" value="Client" style="html=1;" parent="WIyWlLk6GJQsqaUBKTNV-1" vertex="1">
          <mxGeometry x="734" y="260" width="60" height="25" as="geometry" />
        </mxCell>
        <mxCell id="hzo_TGVIDgafTTq2jEPT-62" style="edgeStyle=orthogonalEdgeStyle;rounded=0;orthogonalLoop=1;jettySize=auto;html=1;endArrow=open;endFill=0;endSize=10;exitX=0.5;exitY=1;exitDx=0;exitDy=0;entryX=1;entryY=0.5;entryDx=0;entryDy=0;" parent="WIyWlLk6GJQsqaUBKTNV-1" source="hzo_TGVIDgafTTq2jEPT-59" target="hzo_TGVIDgafTTq2jEPT-25" edge="1">
          <mxGeometry relative="1" as="geometry">
            <mxPoint x="761" y="347" as="targetPoint" />
            <mxPoint x="744" y="282.5" as="sourcePoint" />
          </mxGeometry>
        </mxCell>
        <mxCell id="hzo_TGVIDgafTTq2jEPT-63" style="edgeStyle=orthogonalEdgeStyle;rounded=0;orthogonalLoop=1;jettySize=auto;html=1;endArrow=open;endFill=0;endSize=10;exitX=0.5;exitY=1;exitDx=0;exitDy=0;entryX=1;entryY=0.5;entryDx=0;entryDy=0;" parent="WIyWlLk6GJQsqaUBKTNV-1" source="hzo_TGVIDgafTTq2jEPT-59" target="hzo_TGVIDgafTTq2jEPT-39" edge="1">
          <mxGeometry relative="1" as="geometry">
            <mxPoint x="651" y="316" as="targetPoint" />
            <mxPoint x="774" y="295" as="sourcePoint" />
            <Array as="points">
              <mxPoint x="764" y="459" />
            </Array>
          </mxGeometry>
        </mxCell>
      </root>
    </mxGraphModel>
  </diagram>
</mxfile>
